<svg fill="none" viewBox="0 0 24 24" xmlns="http://www.w3.org/2000/svg"><path clip-rule="evenodd" d="m3 2c-.55228 0-1 .44772-1 1v3c0 .55228.44772 1 1 1h3c.55228 0 1-.44772 1-1v-3c0-.55228-.44772-1-1-1zm0-2h3c1.65685 0 3 1.34315 3 3v3c0 1.65685-1.34315 3-3 3h-3c-1.65685 0-3-1.34315-3-3v-3c0-1.65685 1.34315-3 3-3zm11 16h7c1.6569 0 3 1.3431 3 3v2c0 1.6569-1.3431 3-3 3h-7c-1.6569 0-3-1.3431-3-3v-2c0-1.6569 1.3431-3 3-3zm0 2c-.5523 0-1 .4477-1 1v2c0 .5523.4477 1 1 1h7c.5523 0 1-.4477 1-1v-2c0-.5523-.4477-1-1-1zm-11-7h3c1.65685 0 3 1.3431 3 3v7c0 1.6569-1.34315 3-3 3h-3c-1.65685 0-3-1.3431-3-3v-7c0-1.6569 1.34315-3 3-3zm0 2c-.55228 0-1 .4477-1 1v7c0 .5523.44772 1 1 1h3c.55228 0 1-.4477 1-1v-7c0-.5523-.44772-1-1-1zm18-13c1.6569 0 3 1.34315 3 3v8c0 1.6569-1.3431 3-3 3h-7c-1.6569 0-3-1.3431-3-3v-8c0-1.65685 1.3431-3 3-3zm-8 3v8c0 .5523.4477 1 1 1h7c.5523 0 1-.4477 1-1v-8c0-.55228-.4477-1-1-1h-7c-.5523 0-1 .44772-1 1z" fill="#758ca3" fill-rule="evenodd"/></svg>