<?xml version="1.0" encoding="UTF-8"?>
<svg version="1.1" xmlns="http://www.w3.org/2000/svg" width="512" height="512">
<path d="M0 0 C0.71844524 -0.00367669 1.43689049 -0.00735338 2.1771068 -0.01114148 C4.5850737 -0.02215635 6.99299742 -0.02601846 9.40098572 -0.02983093 C11.1275496 -0.03609737 12.85411215 -0.04274433 14.58067322 -0.04974365 C20.25245731 -0.07076948 25.92424163 -0.08114641 31.59605408 -0.09111023 C33.55096895 -0.09515869 35.50588368 -0.09927564 37.46079826 -0.10346031 C46.64824096 -0.12251075 55.83567564 -0.13674066 65.02313429 -0.14507228 C75.61494354 -0.15483682 86.20654337 -0.18113652 96.79827887 -0.22157317 C104.99294523 -0.2517803 113.18755173 -0.26654562 121.38227266 -0.26985329 C126.27259297 -0.27219902 131.16268952 -0.2810969 136.05294991 -0.30631447 C140.65851896 -0.32967996 145.26371828 -0.33379449 149.86933136 -0.32355309 C151.55307435 -0.32305963 153.23683606 -0.32932356 154.92052269 -0.34310913 C168.21452686 -0.44580272 179.11929041 1.16847435 189.37339783 10.39717102 C190.19839783 11.30467102 191.02339783 12.21217102 191.87339783 13.14717102 C192.36968689 13.68857727 192.86597595 14.22998352 193.37730408 14.78779602 C201.18933767 24.10741505 202.47347801 35.62643891 202.40684509 47.38545227 C202.41546066 48.63752975 202.42407623 49.88960724 202.43295288 51.17962646 C202.45159079 54.569919 202.45257256 57.95922138 202.44363141 61.3494873 C202.43847867 64.19042997 202.445847 67.03128716 202.45310348 69.87222099 C202.47001398 76.57088263 202.46661965 83.26931586 202.44981384 89.9679718 C202.43282878 96.86718852 202.44883367 103.76577544 202.48103672 110.66492367 C202.50772993 116.61006042 202.51501159 122.55500104 202.50652164 128.50019169 C202.50160041 132.04213558 202.50376652 135.58369915 202.52430916 139.12559509 C202.54607492 143.06533105 202.5272709 147.00430349 202.50450134 150.94404602 C202.52203964 152.69581398 202.52203964 152.69581398 202.53993225 154.48297119 C202.44707187 162.36087913 202.44707187 162.36087913 199.52145386 166.37080383 C196.87339783 168.14717102 196.87339783 168.14717102 193.87339783 168.77217102 C189.62399234 167.88687821 188.44482572 166.67299269 185.87339783 163.14717102 C185.13065324 159.09355638 185.22483011 155.08315914 185.27745056 150.97236633 C185.27339203 149.7376358 185.2693335 148.50290527 185.26515198 147.23075867 C185.25963055 144.54934285 185.26309098 141.86971466 185.28181267 139.18852997 C185.31096706 134.94286556 185.30309406 130.69775619 185.28991699 126.45204163 C185.26926337 118.19961209 185.28483606 109.94745203 185.3053894 101.69503784 C185.33053461 91.20558732 185.34330002 80.71628963 185.31543308 70.22683406 C185.30552126 66.01335286 185.31550907 61.8005431 185.3413409 57.58713579 C185.35645862 54.33793095 185.34598516 51.08877775 185.33995056 47.83955383 C185.35283615 46.68287201 185.36572174 45.52619019 185.3789978 44.3344574 C185.3300007 36.4052647 184.10502202 29.99556643 178.90855408 23.80732727 C177.93208923 23.01648743 177.93208923 23.01648743 176.93589783 22.20967102 C176.28749939 21.66439758 175.63910095 21.11912415 174.97105408 20.55732727 C170.29721531 17.41532393 166.34595114 16.89460029 160.75820923 16.87974548 C160.05312707 16.87521437 159.34804492 16.87068326 158.62159663 16.86601484 C156.26495219 16.85338023 153.90853913 16.85499058 151.55186462 16.85664368 C149.85969242 16.8506578 148.16752294 16.84385212 146.47535706 16.83628845 C141.88227265 16.8186265 137.28926277 16.81393297 132.69614768 16.81265688 C129.82510145 16.81123475 126.95407414 16.80696397 124.08303261 16.80166245 C114.06270267 16.78316102 104.04242592 16.77499191 94.02207947 16.77656555 C84.68861795 16.77776675 75.35538775 16.75666889 66.02198476 16.72507823 C58.00313058 16.69890624 49.98435191 16.68819865 41.96545535 16.68947637 C37.17865638 16.68998576 32.39206297 16.68431521 27.60530663 16.66312027 C23.10148946 16.64372253 18.59807361 16.64362386 14.0942421 16.65815353 C12.44472097 16.66024088 10.79517462 16.65554514 9.14569664 16.64343262 C-3.93727637 16.52577756 -3.93727637 16.52577756 -15.15003967 22.89326477 C-21.11086304 30.35290788 -22.22966393 37.23312309 -22.28482056 46.75946045 C-22.29460938 48.04803452 -22.30439819 49.33660858 -22.31448364 50.66423035 C-22.3203863 52.07447778 -22.32619684 53.4847256 -22.33192444 54.89497375 C-22.34151399 56.39352685 -22.35152469 57.8920773 -22.36192322 59.390625 C-22.38886167 63.44378324 -22.40993081 67.49695299 -22.4299252 71.55015063 C-22.45185331 75.79158272 -22.47920849 80.03297977 -22.50598145 84.27438354 C-22.55581631 92.29938941 -22.60078915 100.32441481 -22.64400381 108.34945875 C-22.69345505 117.48852717 -22.74834384 126.62756041 -22.8036834 135.76659477 C-22.91736206 154.56008894 -23.0235139 173.35361557 -23.12660217 192.14717102 C-6.95660217 192.14717102 9.21339783 192.14717102 25.87339783 192.14717102 C25.75535666 181.73701496 25.75535666 181.73701496 25.60313416 171.3273468 C25.5136429 155.62115073 29.43019805 144.09209633 40.29136658 132.51045227 C51.5946257 122.16480663 64.45204627 119.61574097 79.34361267 119.75605774 C81.37115213 119.77215319 83.39669937 119.75611883 85.42417908 119.73701477 C100.80404215 119.78229405 112.30413286 123.23629655 123.54527283 133.78779602 C132.8896013 143.25755172 137.91350666 154.47240126 138.06871033 167.83857727 C138.05561917 169.79570508 138.03207018 171.75278911 137.99839783 173.70967102 C137.98937439 174.71836243 137.98035095 175.72705383 137.97105408 176.76631165 C137.94773139 179.2268556 137.91500546 181.68687998 137.87339783 184.14717102 C138.85105833 184.1448927 138.85105833 184.1448927 139.84846956 184.14256835 C178.49501758 184.05301717 217.14155219 183.98440515 255.78818299 183.9429097 C260.43060178 183.937907 265.07302036 183.9327297 269.71543884 183.92744446 C270.63964401 183.92639522 271.56384917 183.92534597 272.51606055 183.92426494 C287.47220427 183.9068692 302.42828637 183.87533608 317.38439355 183.83855984 C332.73566128 183.8011273 348.08689678 183.77893028 363.43820828 183.77081704 C372.90751592 183.76533407 382.37664935 183.74802905 391.84590336 183.71550515 C398.34312749 183.69432871 404.84026183 183.68797805 411.33751795 183.69316551 C415.08371804 183.69572244 418.82961413 183.69185829 422.57575989 183.67034912 C426.64463676 183.64715855 430.71287105 183.65524856 434.78179932 183.66615295 C436.54302839 183.64867591 436.54302839 183.64867591 438.33983785 183.63084579 C448.75834399 183.70615751 457.50169014 185.94848414 465.15464783 193.28779602 C472.74065268 201.494474 474.17314541 208.64985629 474.16392517 219.68525696 C474.17400101 221.41811951 474.17400101 221.41811951 474.1842804 223.18598938 C474.20326195 227.00121882 474.20718486 230.81627231 474.20933533 234.63154602 C474.21413811 236.61734885 474.21894455 238.60315172 474.22425616 240.58895326 C474.24051748 246.83265599 474.24542729 253.0763011 474.2440033 259.32002258 C474.24280331 265.74004631 474.26388139 272.15973309 474.29549062 278.57967162 C474.32173305 284.10858149 474.33236723 289.63738187 474.33109248 295.16635346 C474.33058504 298.4609571 474.3380142 301.75519577 474.35744858 305.04975128 C474.37712695 308.73061763 474.3712619 312.41062567 474.35923767 316.09150696 C474.37047668 317.16821655 474.3817157 318.24492615 474.39329529 319.35426331 C474.31638175 328.65812359 472.03378078 336.70208928 465.57652283 343.61592102 C457.78383474 350.62219104 449.93983556 352.45039034 439.6988678 352.38768005 C438.16597117 352.39024333 438.16597117 352.39024333 436.60210693 352.39285839 C433.17960771 352.39615125 429.75730476 352.38515277 426.33482361 352.3742218 C423.88076787 352.37365764 421.42671179 352.37397433 418.97265625 352.37510681 C413.69015609 352.37556217 408.40771696 352.36989125 403.1252327 352.35863113 C395.4877025 352.34236163 387.85019617 352.33716664 380.21265052 352.33465515 C367.82058138 352.33028032 355.4285386 352.31697698 343.03648376 352.29804993 C331.00035229 352.27968563 318.96422799 352.26553182 306.92808533 352.2570343 C305.81480699 352.25624613 305.81480699 352.25624613 304.67903818 352.25544204 C300.95562829 352.25283192 297.23221835 352.25030452 293.50880837 352.24781823 C262.63031902 352.22709234 231.75186243 352.19172369 200.87339783 352.14717102 C200.74447647 352.7658606 200.61555511 353.38455017 200.48272705 354.02198792 C200.2223188 355.23879242 200.2223188 355.23879242 199.95664978 356.48017883 C199.70139275 357.6866507 199.70139275 357.6866507 199.440979 358.91749573 C197.8027143 365.35322417 192.70119601 370.81453163 187.87339783 375.14717102 C187.13089783 375.82779602 186.38839783 376.50842102 185.62339783 377.20967102 C178.45429551 382.26062947 171.43106004 384.26551233 162.74679565 384.29434204 C162.02835041 384.29801873 161.30990517 384.30169542 160.56968886 384.30548352 C158.16172195 384.31649839 155.75379824 384.3203605 153.34580994 384.32417297 C151.61924605 384.33043941 149.89268351 384.33708637 148.16612244 384.34408569 C142.49433834 384.36511153 136.82255403 384.37548845 131.15074158 384.38545227 C129.19582671 384.38950073 127.24091198 384.39361768 125.28599739 384.39780235 C116.09855469 384.41685279 106.91112001 384.4310827 97.72366136 384.43941432 C87.13185211 384.44917886 76.54025228 384.47547856 65.94851679 384.51591522 C57.75385043 384.54612234 49.55924393 384.56088766 41.36452299 384.56419533 C36.47420269 384.56654106 31.58410614 384.57543894 26.69384575 384.60065651 C22.0882767 384.624022 17.48307737 384.62813654 12.87746429 384.61789513 C11.1937213 384.61740167 9.50995959 384.62366561 7.82627296 384.63745117 C-5.88878763 384.74339734 -16.84967565 382.95784757 -27.12660217 373.14717102 C-36.49058803 363.33816405 -38.73195988 352.92169737 -38.63453674 339.67402649 C-38.64077671 338.35748518 -38.64701667 337.04094387 -38.65344572 335.68450737 C-38.6700327 332.05914884 -38.66194177 328.43421539 -38.64950085 324.80885601 C-38.64040869 320.88784701 -38.65444062 316.96690846 -38.66542053 313.0459137 C-38.68316611 305.37612319 -38.6793835 297.70648964 -38.66776997 290.0366931 C-38.65872028 283.80086197 -38.65751828 277.5650747 -38.66186523 271.32923889 C-38.66247817 270.44023891 -38.6630911 269.55123893 -38.6637226 268.63529956 C-38.66500156 266.82906547 -38.66629842 265.02283139 -38.66761297 263.21659732 C-38.67900716 246.29697173 -38.6659233 229.37743296 -38.6444115 212.45782161 C-38.62654158 197.95383732 -38.62964601 183.44998112 -38.64808655 168.94599915 C-38.66951379 152.08510544 -38.67790864 135.22428776 -38.66563749 118.36338234 C-38.66436336 116.56395595 -38.66310587 114.76452956 -38.66186523 112.96510315 C-38.66093958 111.63722694 -38.66093958 111.63722694 -38.65999523 110.28252494 C-38.65654789 104.05735497 -38.66235737 97.8322334 -38.67178345 91.60707092 C-38.68302543 84.01610863 -38.67991729 76.42531169 -38.65866047 68.83436823 C-38.64817953 64.96457734 -38.64397737 61.09506171 -38.65725708 57.22527313 C-38.6714579 53.02338308 -38.65445218 48.82218237 -38.63453674 44.62031555 C-38.64345963 43.40697477 -38.65238252 42.193634 -38.66157579 40.94352531 C-38.54946377 28.72553584 -35.02412268 19.2988999 -26.53675842 10.49873352 C-18.88478943 3.40490815 -10.3100086 0.0342268 0 0 Z M47.87339783 148.14717102 C43.77070432 154.77233398 41.74387141 160.41319936 41.77574158 168.22138977 C41.77715652 168.90522232 41.77857147 169.58905487 41.7800293 170.29360962 C41.78561906 172.47400824 41.79816961 174.65430353 41.81089783 176.83467102 C41.81591415 178.31448724 41.82047683 179.79430508 41.8245697 181.27412415 C41.83558512 184.89850659 41.85284271 188.52282872 41.87339783 192.14717102 C43.44021301 192.1690448 43.44021301 192.1690448 45.03868103 192.19136047 C48.91354128 192.24932653 52.78781934 192.32655877 56.66221619 192.40962219 C58.33920341 192.44287965 60.0163028 192.4709091 61.69346619 192.49360657 C64.10419008 192.52713839 66.51388544 192.57945081 68.92417908 192.63545227 C69.6742775 192.64184219 70.42437592 192.64823212 71.19720459 192.65481567 C76.37392853 192.80109538 76.37392853 192.80109538 78.81944275 194.49555969 C80.4276456 197.01571079 80.69216755 199.18707647 80.87339783 202.14717102 C79.90734208 204.8967143 79.49324268 205.83724859 76.87339783 207.14717102 C75.5306768 207.25016101 74.1831153 207.29357701 72.83650208 207.3053894 C71.99233734 207.31517822 71.14817261 207.32496704 70.27842712 207.33505249 C68.88660217 207.34368568 68.88660217 207.34368568 67.46665955 207.35249329 C66.49101044 207.36239288 65.51536133 207.37229248 64.51014709 207.38249207 C61.27448481 207.41416413 58.03880782 207.43888705 54.80308533 207.46357727 C52.56391511 207.48414187 50.32474882 207.50513821 48.08558655 207.52655029 C42.1837125 207.58182198 36.28180312 207.63120876 30.37986755 207.67939758 C24.3607518 207.72957543 18.34168754 207.78528087 12.32261658 207.8405304 C0.50625428 207.9481743 -11.31015267 208.04960541 -23.12660217 208.14717102 C-23.17340411 225.70665233 -23.20863108 243.26611405 -23.23022652 260.82564354 C-23.24052191 268.97955287 -23.25454891 277.13342335 -23.27748108 285.28730774 C-23.29746827 292.39747349 -23.31033122 299.5076111 -23.31477916 306.61780417 C-23.31737754 310.37964656 -23.32344837 314.14140845 -23.33806229 317.90322495 C-23.35173058 321.45067897 -23.35580631 324.99802004 -23.35281754 328.54549789 C-23.35362214 330.45442401 -23.36433506 332.36333809 -23.3754425 334.27223206 C-23.34949358 345.20243245 -22.78579731 353.93681793 -15.12660217 362.14717102 C-9.67695469 367.32433613 -4.31067467 368.394843 3.07087708 368.41459656 C4.12365662 368.42139323 4.12365662 368.42139323 5.19770443 368.4283272 C7.53742405 368.44093548 9.87690983 368.43935318 12.21665955 368.43769836 C13.89912717 368.44368581 15.58159206 368.45049186 17.26405334 368.45805359 C21.82608792 368.47569776 26.38804743 368.48040827 30.95011282 368.48168516 C33.80223588 368.4831081 36.65433994 368.48738037 39.50645828 368.4926796 C49.46195434 368.5111739 59.41739688 368.51935087 69.37290955 368.51777649 C78.64447646 368.51657492 87.91581065 368.53768186 97.18731868 368.56926382 C105.1552381 368.59543556 113.12308153 368.60614342 121.09104359 368.60486567 C125.84652908 368.60435635 130.60180764 368.61002334 135.35725021 368.63122177 C139.8307128 368.65061956 144.30377135 368.65071816 148.77724838 368.63618851 C150.4154825 368.63410129 152.05374201 368.63879613 153.69193268 368.65090942 C163.44410477 368.71832845 170.79868393 368.66585916 178.40464783 361.89326477 C179.37917908 360.75051086 179.37917908 360.75051086 180.37339783 359.58467102 C181.04371033 358.82025696 181.71402283 358.0558429 182.40464783 357.26826477 C184.15804218 355.16609783 184.15804218 355.16609783 183.87339783 352.14717102 C183.28863772 352.14478267 182.70387762 352.14239431 182.10139751 352.13993359 C167.88000481 352.08082547 153.65877877 352.0053025 139.43757153 351.91145611 C132.56032021 351.86646965 125.68312102 351.8270617 118.80577087 351.80073547 C112.17265711 351.77532857 105.53975674 351.73444323 98.90677834 351.68398476 C96.37218916 351.66725929 93.83755992 351.65578054 91.3029232 351.64955711 C87.76130609 351.63997784 84.22028861 351.61199212 80.67881775 351.57954407 C79.62361938 351.58097916 78.56842102 351.58241425 77.48124695 351.58389282 C76.51790939 351.57135468 75.55457184 351.55881653 74.56204224 351.54589844 C73.72413241 351.54128947 72.88622259 351.53668051 72.02292156 351.53193188 C69.35426529 351.05424724 68.47839411 350.303828 66.87339783 348.14717102 C66.20141165 344.72004152 66.08648468 342.36579433 68.03227234 339.3525238 C71.60286591 335.22419845 75.27932639 332.05203394 79.74546814 328.90449524 C88.56446192 322.26710239 96.92664819 315.14370838 99.16319275 303.84407043 C101.12196548 289.94490484 100.32012674 275.70204672 99.75175476 261.72590637 C99.4951959 254.82260639 99.39437096 247.91556966 99.28406143 241.00863457 C99.19747665 235.63985397 99.08460769 230.27693559 98.88334656 224.91111755 C98.85381393 223.92552856 98.82428131 222.93993958 98.79385376 221.92448425 C98.73917355 220.10603317 98.66900195 218.2879398 98.57885742 216.47090149 C98.35037085 207.44543284 101.50644426 199.59857399 107.65855408 192.97529602 C111.89539619 189.47821999 116.86183275 187.31967214 121.87339783 185.14717102 C121.96197646 181.85567992 122.01430822 178.56450297 122.06089783 175.27217102 C122.08603455 174.35435852 122.11117126 173.43654602 122.1370697 172.49092102 C122.25877195 160.9697751 119.15769123 152.80112874 111.27964783 144.45967102 C102.81202598 136.47134853 93.15511924 135.50279498 81.93589783 135.64717102 C80.73771423 135.63170227 79.53953064 135.61623352 78.30503845 135.60029602 C66.01478813 135.65387749 56.00592542 138.56123991 47.87339783 148.14717102 Z M116.49839783 206.70967102 C114.30088227 210.00594436 113.74859533 212.49319936 113.76228333 216.36437988 C113.76277428 217.65321075 113.76277428 217.65321075 113.76327515 218.96807861 C113.768517 219.90785049 113.77375885 220.84762238 113.77915955 221.81587219 C113.78194634 223.87252793 113.7846162 225.92918382 113.78718567 227.98583984 C113.79176096 229.6238836 113.79176096 229.6238836 113.79642868 231.29501915 C113.80776032 237.07454571 113.78727314 242.8539931 113.77183533 248.63349915 C113.75354629 255.98984624 113.74484288 263.34577394 113.77378845 270.70210266 C113.79633925 276.64513516 113.78487887 282.58725498 113.75078201 288.53022194 C113.74401634 290.79276067 113.74968281 293.05537272 113.76813889 295.3178463 C113.79234537 298.490083 113.77306197 301.65936231 113.7440033 304.83149719 C113.76139053 305.76114792 113.77877777 306.69079865 113.79669189 307.64862061 C113.67827405 313.88167587 112.0775531 317.00041578 107.69714546 321.43062305 C107.09530874 321.99708388 106.49347202 322.56354471 105.87339783 323.14717102 C104.76855644 324.26892536 103.66535931 325.39230497 102.56480408 326.51826477 C101.52447456 327.54308627 100.48153881 328.56526946 99.43589783 329.58467102 C97.55716994 331.41861398 95.70606636 333.26635357 93.87339783 335.14717102 C93.87339783 335.47717102 93.87339783 335.80717102 93.87339783 336.14717102 C138.7243375 336.23870018 183.5752673 336.30919635 228.42628193 336.35143234 C233.71977059 336.35643524 239.01325906 336.36161253 244.30674744 336.36689758 C245.36059828 336.36794682 246.41444912 336.36899607 247.50023483 336.3700771 C264.57039757 336.38748858 281.64050648 336.41903037 298.71063728 336.4557822 C316.22246989 336.49317094 333.7342743 336.5154025 351.24614519 336.523525 C362.05438749 336.52901706 372.86247769 336.54637146 383.67067318 336.57883689 C391.07940723 336.59995924 398.4880625 336.60637623 405.89682449 336.60117653 C410.17313374 336.5986112 414.44917696 336.60258001 418.72543907 336.62399292 C422.64082493 336.64345575 426.55576582 336.64444299 430.47117215 336.6307666 C431.88717784 336.62907626 433.30321127 336.63415302 434.71916235 336.64670375 C445.00545807 336.76076941 445.00545807 336.76076941 453.87339783 332.14717102 C459.3731521 325.84360651 459.02519182 318.03145656 459.03453064 310.17549133 C459.03949554 309.1748465 459.04446045 308.17420166 459.04957581 307.14323425 C459.06416444 303.83724781 459.07099412 300.53130935 459.07652283 297.22529602 C459.08227719 294.92229715 459.08803488 292.61929829 459.09379578 290.31629944 C459.10429651 285.48778562 459.11014519 280.6592884 459.1136322 275.83076477 C459.11911358 269.65609354 459.14313814 263.48164319 459.17160416 257.30704117 C459.19026595 252.54912178 459.19543804 247.7912552 459.19696808 243.03330231 C459.19998735 240.75761966 459.20799125 238.48193778 459.22115326 236.2062912 C459.23828679 233.01616814 459.23631546 229.82657976 459.22984314 226.63642883 C459.23905792 225.70416473 459.24827271 224.77190063 459.25776672 223.81138611 C459.21541518 217.1176209 458.44799659 210.3771222 454.15464783 204.99092102 C453.56683533 204.54748352 452.97902283 204.10404602 452.37339783 203.64717102 C451.78558533 203.18310852 451.19777283 202.71904602 450.59214783 202.24092102 C447.2527714 200.1158633 444.37343478 200.02006462 440.52624893 200.01294994 C438.85173468 200.00626318 438.85173468 200.00626318 437.14339185 199.99944133 C435.29600671 199.99971787 435.29600671 199.99971787 433.41130066 200 C432.10693959 199.99632331 430.80257852 199.99264662 429.45869136 199.98885852 C425.83047855 199.97883391 422.20228228 199.97512099 418.57405758 199.97246921 C414.66391229 199.96856756 410.75378011 199.95898917 406.84364319 199.95025635 C397.39724748 199.93048869 387.9508507 199.92042565 378.50443947 199.91152856 C374.05732346 199.90714642 369.61020864 199.90177944 365.16309357 199.89653969 C350.38247551 199.87952762 335.60185819 199.86503281 320.82123184 199.85779095 C316.98510487 199.85588102 313.1489779 199.85396069 309.31285095 199.852005 C308.3593869 199.85152126 307.40592285 199.85103752 306.42356595 199.85053913 C290.97345035 199.84223644 275.52341212 199.81689541 260.07333031 199.78442433 C244.21573596 199.75136811 228.35818094 199.73334352 212.50055194 199.73014671 C203.59515508 199.72798035 194.68987106 199.71921325 185.78450775 199.69368553 C178.20131248 199.67199822 170.61825745 199.66391841 163.03503469 199.67365231 C159.16577786 199.67820267 155.29681051 199.67626835 151.42759323 199.65689087 C147.23266746 199.63606357 143.03838607 199.64622613 138.84342957 199.65942383 C137.62076236 199.64845458 136.39809515 199.63748534 135.13837743 199.62618369 C127.03070872 199.68792726 122.18472438 200.57442395 116.49839783 206.70967102 Z " fill="#000000" transform="translate(38.12660217285156,63.85282897949219)"/>
<path d="M0 0 C0.74121094 -0.03351563 1.48242188 -0.06703125 2.24609375 -0.1015625 C5.81629451 1.01826438 7.56876747 3.60498578 9.5625 6.625 C11.20296588 10.04980301 12.49071185 13.57792215 13.77734375 17.1484375 C14.15556778 18.16741119 14.53379181 19.18638489 14.92347717 20.23623657 C16.12709917 23.48673419 17.31384811 26.74309201 18.5 30 C19.2924948 32.15015456 20.08610464 34.29989849 20.88085938 36.44921875 C22.41645187 40.60449208 23.94163863 44.76337158 25.46044922 48.92480469 C26.75935305 52.47178571 28.08731917 56.00352117 29.46533203 59.52050781 C29.74937393 60.2512149 30.03341583 60.981922 30.32606506 61.73477173 C31.06588347 63.62780133 31.81673555 65.51650899 32.56860352 67.40478516 C33.59316918 70.72436783 33.91946138 73.17651448 33.5625 76.625 C31.10655875 79.94774404 29.6368356 81.40118008 25.5625 82.25 C21.44183091 81.39152727 20.1223577 79.94589647 17.5625 76.625 C15.77162522 72.94296145 14.5625 69.74062849 14.5625 65.625 C4.9925 65.625 -4.5775 65.625 -14.4375 65.625 C-15.4275 68.925 -16.4175 72.225 -17.4375 75.625 C-19.63394146 79.46877256 -20.63113528 80.37575999 -24.875 81.6875 C-28.4375 81.625 -28.4375 81.625 -31.3125 79.9375 C-33.48887303 77.56909406 -33.98275077 76.70067074 -34.4375 73.625 C-33.71793458 70.87299086 -32.92053349 68.28928384 -31.97265625 65.6171875 C-31.7004274 64.82714325 -31.42819855 64.037099 -31.14772034 63.22311401 C-28.22631773 54.83720139 -25.06470702 46.54108099 -21.85083008 38.26367188 C-20.86808042 35.73217564 -19.89157925 33.19833564 -18.91601562 30.6640625 C-17.38007616 26.68114234 -15.82858618 22.70462185 -14.26483154 18.73254395 C-13.50290348 16.79160879 -12.75121061 14.84666398 -12.00048828 12.90136719 C-11.57880371 11.83821289 -11.15711914 10.77505859 -10.72265625 9.6796875 C-10.37211182 8.78491699 -10.02156738 7.89014648 -9.66040039 6.96826172 C-7.41420218 2.66420694 -4.97399614 0.05172266 0 0 Z M-0.4375 28.625 C-3.0775 35.555 -5.7175 42.485 -8.4375 49.625 C-3.1575 49.625 2.1225 49.625 7.5625 49.625 C5.5001064 42.50974206 3.16060321 35.56206745 0.5625 28.625 C0.2325 28.625 -0.0975 28.625 -0.4375 28.625 Z " fill="#000000" transform="translate(323.4375,290.375)"/>
<path d="M0 0 C0.93171021 -0.0038269 1.86342041 -0.00765381 2.82336426 -0.01159668 C4.78671351 -0.01430996 6.75009927 -0.00698976 8.71337891 0.00976562 C11.70948281 0.03118375 14.70318896 0.00994427 17.69921875 -0.015625 C19.61198443 -0.01298162 21.52474863 -0.00785643 23.4375 0 C24.32828247 -0.00809692 25.21906494 -0.01619385 26.13684082 -0.02453613 C31.65981109 0.05825948 34.83600293 0.85812273 39.21875 4.53125 C44.97082474 10.74970918 44.42772633 16.55407521 44.46875 24.65625 C44.489375 25.65140625 44.51 26.6465625 44.53125 27.671875 C44.58800392 38.54024977 42.21952639 46.83592134 34.96875 55.09375 C27.39942822 61.80292157 19.74600468 65.07496916 9.57421875 64.77734375 C0.5649988 63.83608196 -6.40993923 60.31887608 -12.50390625 53.64453125 C-19.75528824 44.57584959 -20.28098814 36.22227615 -20.21875 24.90625 C-20.23873047 23.60945313 -20.25871094 22.31265625 -20.27929688 20.9765625 C-20.27315185 9.03062589 -20.27315185 9.03062589 -15.78125 4.53125 C-10.54924838 0.1693174 -6.51828278 -0.05924908 0 0 Z M-3.78125 16.53125 C-3.86375 19.8725 -3.94625 23.21375 -4.03125 26.65625 C-4.06766602 27.69797363 -4.10408203 28.73969727 -4.14160156 29.81298828 C-4.21038287 35.58063364 -3.73145139 39.00751665 0.21875 43.53125 C4.83914809 47.50694138 9.21631094 48.77999973 15.21875 48.53125 C20.59382022 46.84495346 24.15952169 43.16493457 27.21875 38.53125 C28.09389373 35.69585944 28.33754166 33.16208306 28.31640625 30.203125 C28.31390869 29.4822168 28.31141113 28.76130859 28.30883789 28.01855469 C28.29973389 27.11524414 28.29062988 26.21193359 28.28125 25.28125 C28.260625 22.39375 28.24 19.50625 28.21875 16.53125 C17.65875 16.53125 7.09875 16.53125 -3.78125 16.53125 Z " fill="#000000" transform="translate(107.78125,111.46875)"/>
<path d="M0 0 C0.71353638 -0.00241196 1.42707275 -0.00482391 2.16223145 -0.00730896 C3.66501444 -0.0063331 5.16783454 0.0069986 6.67041016 0.03198242 C8.96251287 0.06631283 11.25075972 0.05262863 13.54296875 0.03320312 C15.00782881 0.04010207 16.47267897 0.04977492 17.9375 0.0625 C18.61784302 0.05754013 19.29818604 0.05258026 19.99914551 0.04747009 C23.47050834 0.13281057 25.42795445 0.6035721 28.40039062 2.44946289 C30.46875 4.62890625 30.46875 4.62890625 31.09375 8.06640625 C30.28127338 12.69752297 29.27557144 13.86884336 25.46875 16.62890625 C21.67889758 17.23996757 17.98229569 17.10051883 14.15625 16.94140625 C13.12951172 16.91884766 12.10277344 16.89628906 11.04492188 16.87304688 C8.51890334 16.81430226 5.99363776 16.72462651 3.46875 16.62890625 C3.46875 21.90890625 3.46875 27.18890625 3.46875 32.62890625 C4.78230469 32.59410156 6.09585937 32.55929687 7.44921875 32.5234375 C9.18488301 32.49529159 10.92056115 32.46799229 12.65625 32.44140625 C13.95272461 32.40370117 13.95272461 32.40370117 15.27539062 32.36523438 C20.15710222 32.30912275 23.536072 32.37400442 27.46875 35.62890625 C29.01461876 38.72064377 28.76234521 41.22320177 28.46875 44.62890625 C27.12109375 46.83984375 27.12109375 46.83984375 24.46875 48.62890625 C20.87396809 49.12318399 17.33848869 49.00422343 13.71875 48.87890625 C12.73519531 48.86085938 11.75164062 48.8428125 10.73828125 48.82421875 C8.31468659 48.77715866 5.89159375 48.70541711 3.46875 48.62890625 C3.46875 54.23890625 3.46875 59.84890625 3.46875 65.62890625 C5.08265625 65.5825 6.6965625 65.53609375 8.359375 65.48828125 C10.47914817 65.45076314 12.59894134 65.41436303 14.71875 65.37890625 C15.78222656 65.34539062 16.84570312 65.311875 17.94140625 65.27734375 C18.96621094 65.26445312 19.99101562 65.2515625 21.046875 65.23828125 C22.46081543 65.20686035 22.46081543 65.20686035 23.90332031 65.17480469 C27.25685512 65.76840716 28.41538591 66.96036425 30.46875 69.62890625 C30.93793683 73.38240087 31.00011381 75.66739078 29.15625 79.00390625 C24.67982852 83.31453434 17.11144139 81.85328101 11.27246094 81.86914062 C9.10833215 81.87884089 6.94515581 81.90987392 4.78125 81.94140625 C3.39844312 81.94793752 2.01562947 81.95318751 0.6328125 81.95703125 C-1.24736572 81.9710498 -1.24736572 81.9710498 -3.16552734 81.98535156 C-6.78381125 81.60215887 -8.65392652 80.81197828 -11.53125 78.62890625 C-12.97816898 75.73506828 -12.69063654 73.19684877 -12.72412109 69.96362305 C-12.73229858 69.27885895 -12.74047607 68.59409485 -12.74890137 67.88858032 C-12.77374948 65.61843745 -12.79027 63.3483571 -12.8046875 61.078125 C-12.81001118 60.30288797 -12.81533485 59.52765095 -12.82081985 58.72892189 C-12.84754929 54.62536228 -12.86692454 50.52183307 -12.88134766 46.41821289 C-12.89799278 42.18101454 -12.94276891 37.94459441 -12.9937191 33.70769024 C-13.02738655 30.44856378 -13.03892444 27.18962214 -13.04457474 23.93033791 C-13.051289 22.3686103 -13.06651588 20.80689493 -13.09046555 19.24533653 C-13.12211174 17.05703841 -13.12215629 14.87084021 -13.11474609 12.68237305 C-13.12283295 11.43820114 -13.1309198 10.19402924 -13.13925171 8.91215515 C-11.77823885 1.5625969 -6.76971952 -0.13192515 0 0 Z " fill="#000000" transform="translate(439.53125,290.37109375)"/>
<path d="M0 0 C0.71353638 -0.00619858 1.42707275 -0.01239716 2.16223145 -0.01878357 C3.66494386 -0.02586079 5.16773503 -0.0227443 6.67041016 -0.01000977 C8.96273644 0.00386984 11.2509861 -0.03024982 13.54296875 -0.06835938 C15.00781349 -0.0693106 16.47266332 -0.06745157 17.9375 -0.0625 C18.61784302 -0.07575821 19.29818604 -0.08901642 19.99914551 -0.10267639 C23.81123585 -0.02850738 25.3902123 0.50340212 28.40039062 2.91821289 C30.46875 5.56640625 30.46875 5.56640625 31.09375 8.56640625 C30.21514771 12.78369726 28.9478292 14.00535781 25.46875 16.56640625 C21.67957722 17.18072514 17.98205361 17.03800877 14.15625 16.87890625 C13.12951172 16.85634766 12.10277344 16.83378906 11.04492188 16.81054688 C8.51890334 16.75180226 5.99363776 16.66212651 3.46875 16.56640625 C3.46875 21.84640625 3.46875 27.12640625 3.46875 32.56640625 C4.78230469 32.53160156 6.09585938 32.49679687 7.44921875 32.4609375 C9.18488301 32.43279159 10.92056115 32.40549229 12.65625 32.37890625 C13.95272461 32.34120117 13.95272461 32.34120117 15.27539062 32.30273438 C20.15710222 32.24662275 23.536072 32.31150442 27.46875 35.56640625 C28.89537219 38.41965062 28.77908868 40.40095174 28.46875 43.56640625 C27.12109375 46.24609375 27.12109375 46.24609375 24.46875 48.56640625 C20.87020717 49.19312091 17.35739781 49.03637104 13.71875 48.87890625 C12.73519531 48.85634766 11.75164062 48.83378906 10.73828125 48.81054688 C8.31445187 48.75171606 5.89140652 48.66203743 3.46875 48.56640625 C3.46875 54.17640625 3.46875 59.78640625 3.46875 65.56640625 C5.08265625 65.52 6.6965625 65.47359375 8.359375 65.42578125 C10.47914817 65.38826314 12.59894134 65.35186303 14.71875 65.31640625 C15.78222656 65.28289062 16.84570312 65.249375 17.94140625 65.21484375 C18.96621094 65.20195312 19.99101562 65.1890625 21.046875 65.17578125 C22.46081543 65.14436035 22.46081543 65.14436035 23.90332031 65.11230469 C27.25685767 65.70590761 28.41254329 66.90033788 30.46875 69.56640625 C30.96875 73.06640625 30.96875 73.06640625 30.46875 76.56640625 C28.25011971 79.47357698 26.94930071 80.40622268 23.46875 81.56640625 C19.2149169 81.7937366 14.95884027 81.79467397 10.69970703 81.80664062 C8.60799294 81.8163402 6.51726463 81.84737387 4.42578125 81.87890625 C3.08854747 81.88543765 1.7513067 81.89068758 0.4140625 81.89453125 C-1.40327393 81.9085498 -1.40327393 81.9085498 -3.25732422 81.92285156 C-6.82060873 81.53490262 -8.68886185 80.7091196 -11.53125 78.56640625 C-12.9910552 75.64679584 -12.69090794 73.05414628 -12.72412109 69.79345703 C-12.73229858 69.09733307 -12.74047607 68.40120911 -12.74890137 67.68399048 C-12.77374743 65.37657535 -12.79026803 63.06922163 -12.8046875 60.76171875 C-12.81001118 59.97420101 -12.81533485 59.18668327 -12.82081985 58.37530136 C-12.84754632 54.20805586 -12.86692394 50.04084028 -12.88134766 45.87353516 C-12.89800679 41.56674267 -12.94279554 37.26071377 -12.9937191 32.95421028 C-13.02735117 29.64451199 -13.03892047 26.334996 -13.04457474 23.02514267 C-13.05129706 21.43746978 -13.06654476 19.8498093 -13.09046555 18.2623024 C-13.12204045 16.04028021 -13.12216714 13.82033158 -13.11474609 11.59814453 C-13.12283295 10.33398712 -13.1309198 9.06982971 -13.13925171 7.7673645 C-12.53125 4.56640625 -12.53125 4.56640625 -10.21463013 2.16026306 C-6.79426158 0.12865463 -3.87148239 -0.02822407 0 0 Z " fill="#000000" transform="translate(247.53125,290.43359375)"/>
<path d="M0 0 C3.18247737 1.00073995 4.12434458 2.88461784 6 5.62890625 C7.42481003 8.86017853 8.5473124 12.17761513 9.671875 15.5234375 C9.99915588 16.47079269 10.32643677 17.41814789 10.66363525 18.39421082 C11.70194809 21.40676886 12.72613412 24.42391142 13.75 27.44140625 C14.45349893 29.49055326 15.15791592 31.53938533 15.86328125 33.58789062 C17.58617215 38.59796317 19.29750445 43.61186887 21 48.62890625 C22.71557769 46.05553971 23.53613549 44.35112358 24.44873047 41.48046875 C24.84957352 40.23402588 24.84957352 40.23402588 25.2585144 38.96240234 C25.68355759 37.62169678 25.68355759 37.62169678 26.1171875 36.25390625 C26.72993883 34.36310944 27.34323692 32.47248974 27.95703125 30.58203125 C28.91956784 27.60146318 29.87790943 24.61975252 30.82666016 21.63476562 C31.74469249 18.75373199 32.67960246 15.8786263 33.6171875 13.00390625 C34.03615799 11.66320068 34.03615799 11.66320068 34.46359253 10.29541016 C36.48183949 4.16420757 36.48183949 4.16420757 38.99267578 1.5703125 C42.15280726 0.08825619 44.57109501 0.20029313 48 0.62890625 C50.4375 2.12890625 50.4375 2.12890625 52 4.62890625 C52.91811599 12.58253316 50.06885664 19.56894367 47.546875 27.015625 C47.08488769 28.40444104 46.62365775 29.79350922 46.16314697 31.18281555 C45.19896832 34.08260387 44.22638993 36.97939358 43.24755859 39.87426758 C41.99705801 43.57452683 40.76684222 47.28115431 39.54270554 50.99020672 C38.59471962 53.85562542 37.63658141 56.71756853 36.67533112 59.57856178 C36.21785485 60.94383659 35.76337803 62.31012042 35.31203461 63.67743492 C34.67887716 65.5900541 34.03064466 67.4976626 33.38183594 69.4050293 C33.01765564 70.48898483 32.65347534 71.57294037 32.27825928 72.68974304 C30.64213454 76.45176356 28.75389146 79.75196052 25 81.62890625 C22.9765625 81.68359375 22.9765625 81.68359375 20.625 81.50390625 C19.85414063 81.46007812 19.08328125 81.41625 18.2890625 81.37109375 C14.89438311 80.27042978 14.00400557 78.59552843 12 75.62890625 C10.56602477 72.30571284 9.44537723 68.89524192 8.3203125 65.45703125 C7.81744217 63.96329987 7.81744217 63.96329987 7.30441284 62.43939209 C6.23483644 59.25573765 5.17952397 56.06757439 4.125 52.87890625 C3.07772697 49.74386564 2.0275374 46.6098149 0.97674561 43.47595215 C0.29149297 41.42875027 -0.39110327 39.38065724 -1.07098389 37.33166504 C-2.60451787 32.72103142 -4.16375223 28.1275406 -5.84472656 23.56835938 C-6.12696075 22.79844666 -6.40919495 22.02853394 -6.69998169 21.23529053 C-7.21674426 19.83787833 -7.74264957 18.44379176 -8.28024292 17.05426025 C-9.85993947 12.77833027 -10.35566569 9.17391005 -10 4.62890625 C-7.41070178 0.42129664 -4.59743872 0.15264933 0 0 Z " fill="#000000" transform="translate(363,290.37109375)"/>
<path d="M0 0 C0.66 -0.02191406 1.32 -0.04382813 2 -0.06640625 C5.13703843 0.92004529 6.20099122 2.87784644 8 5.5625 C8.48101807 8.44160461 8.48101807 8.44160461 8.45410156 11.63793945 C8.45364838 13.43924065 8.45364838 13.43924065 8.45318604 15.27693176 C8.43254089 16.56355209 8.41189575 17.85017242 8.390625 19.17578125 C8.38315827 20.51384127 8.37746738 21.85191228 8.37347412 23.18998718 C8.35825131 26.70015008 8.31900009 30.20964374 8.2746582 33.71954346 C8.23363207 37.30577543 8.21544755 40.89211627 8.1953125 44.47851562 C8.15250133 51.50678415 8.08429168 58.53460988 8 65.5625 C9.25296875 65.52769531 10.5059375 65.49289062 11.796875 65.45703125 C13.44790324 65.42888872 15.09894601 65.40158906 16.75 65.375 C17.575 65.34986328 18.4 65.32472656 19.25 65.29882812 C25.34352417 65.22511614 25.34352417 65.22511614 28.5234375 66.859375 C30.87068695 69.56678442 30.87717574 72.06200853 31 75.5625 C30.21857367 78.19093402 29.61251764 79.16926456 27.31420898 80.64477539 C22.2590214 82.64946472 16.42683617 81.97567807 11.0625 82 C9.78697266 82.03287109 8.51144531 82.06574219 7.19726562 82.09960938 C5.35358398 82.11024414 5.35358398 82.11024414 3.47265625 82.12109375 C1.79055054 82.14127563 1.79055054 82.14127563 0.07446289 82.16186523 C-4.06398301 81.35507696 -5.37053454 79.81911123 -8 76.5625 C-8.62818909 73.25474548 -8.62818909 73.25474548 -8.63110352 69.44897461 C-8.63825882 68.75241257 -8.64541412 68.05585052 -8.65278625 67.33818054 C-8.66963161 65.04639165 -8.65030048 62.75657046 -8.62890625 60.46484375 C-8.62973525 58.86731301 -8.63219583 57.26978236 -8.63621521 55.67225647 C-8.6390702 52.32901241 -8.62440059 48.98643942 -8.59692383 45.64331055 C-8.56281305 41.36011625 -8.56887078 37.07811943 -8.5875864 32.79486752 C-8.59815854 29.49795057 -8.58921727 26.20131192 -8.57420158 22.90442085 C-8.56902269 21.3251891 -8.56949805 19.74592825 -8.57574654 18.16670036 C-8.58120281 15.95937533 -8.56081545 13.75376087 -8.53344727 11.54663086 C-8.52724869 10.29152206 -8.52105011 9.03641327 -8.5146637 7.74327087 C-7.72127335 2.83988846 -5.08062243 -0.00992309 0 0 Z " fill="#000000" transform="translate(192,290.4375)"/>
<path d="M0 0 C0.66730133 -0.00379669 1.33460266 -0.00759338 2.02212524 -0.01150513 C4.21632691 -0.01888309 6.40918861 0.00242841 8.60327148 0.02490234 C10.13353826 0.02728831 11.66380799 0.02819177 13.19407654 0.02767944 C16.3960106 0.03080257 19.59749535 0.04733105 22.79931641 0.07421875 C26.90065095 0.10822684 31.00149296 0.11584621 35.102952 0.11432838 C38.26084584 0.11487253 41.41863231 0.12584629 44.5764904 0.14033127 C46.08873622 0.14668841 47.60099418 0.15063563 49.11325264 0.15211868 C51.22675374 0.15646172 53.33973575 0.17398258 55.453125 0.1953125 C56.65493912 0.2029361 57.85675323 0.21055969 59.09498596 0.21841431 C62.04605993 0.47574186 63.70779502 0.88105192 66.16186523 2.48583984 C68.24345543 5.1621701 68.15774114 6.60337652 68.03686523 10.04833984 C67.16186523 13.48583984 67.16186523 13.48583984 65.53894043 15.1754303 C62.32694627 16.94610537 59.91569599 16.87394083 56.25366211 16.88989258 C55.22366844 16.90018745 55.22366844 16.90018745 54.17286682 16.91069031 C51.9085712 16.92895573 49.64496854 16.92512193 47.38061523 16.91943359 C45.80407486 16.92399517 44.22753647 16.92930067 42.65100098 16.93531799 C39.34903884 16.94424826 36.04731858 16.94182662 32.74536133 16.93188477 C28.51489092 16.92038809 24.28525435 16.94061687 20.05489349 16.9698019 C16.80005598 16.98815045 13.54541886 16.98787432 10.2905426 16.98216438 C8.73082814 16.98201104 7.1711002 16.98806628 5.61143494 17.00045586 C3.43044737 17.01534173 1.2510076 17.00470949 -0.92993164 16.98754883 C-2.7904718 16.98729958 -2.7904718 16.98729958 -4.68859863 16.98704529 C-8.40859713 16.39505859 -9.57743877 15.43731123 -11.83813477 12.48583984 C-12.40454102 10.48583984 -12.40454102 10.48583984 -12.40063477 8.48583984 C-12.42254883 7.82583984 -12.44446289 7.16583984 -12.46704102 6.48583984 C-10.64171288 0.68106962 -5.33561985 -0.01264476 0 0 Z " fill="#000000" transform="translate(51.838134765625,343.51416015625)"/>
<path d="M0 0 C0.66730133 -0.00379669 1.33460266 -0.00759338 2.02212524 -0.01150513 C4.21632691 -0.01888309 6.40918861 0.00242841 8.60327148 0.02490234 C10.13353826 0.02728831 11.66380799 0.02819177 13.19407654 0.02767944 C16.3960106 0.03080257 19.59749535 0.04733105 22.79931641 0.07421875 C26.90065095 0.10822684 31.00149296 0.11584621 35.102952 0.11432838 C38.26084584 0.11487253 41.41863231 0.12584629 44.5764904 0.14033127 C46.08873622 0.14668841 47.60099418 0.15063563 49.11325264 0.15211868 C51.22675374 0.15646172 53.33973575 0.17398258 55.453125 0.1953125 C56.65493912 0.2029361 57.85675323 0.21055969 59.09498596 0.21841431 C62.04605993 0.47574186 63.70779502 0.88105192 66.16186523 2.48583984 C68.24345543 5.1621701 68.15774114 6.60337652 68.03686523 10.04833984 C67.16186523 13.48583984 67.16186523 13.48583984 65.53894043 15.1754303 C62.32694627 16.94610537 59.91569599 16.87394083 56.25366211 16.88989258 C55.22366844 16.90018745 55.22366844 16.90018745 54.17286682 16.91069031 C51.9085712 16.92895573 49.64496854 16.92512193 47.38061523 16.91943359 C45.80407486 16.92399517 44.22753647 16.92930067 42.65100098 16.93531799 C39.34903884 16.94424826 36.04731858 16.94182662 32.74536133 16.93188477 C28.51489092 16.92038809 24.28525435 16.94061687 20.05489349 16.9698019 C16.80005598 16.98815045 13.54541886 16.98787432 10.2905426 16.98216438 C8.73082814 16.98201104 7.1711002 16.98806628 5.61143494 17.00045586 C3.43044737 17.01534173 1.2510076 17.00470949 -0.92993164 16.98754883 C-2.7904718 16.98729958 -2.7904718 16.98729958 -4.68859863 16.98704529 C-8.40859713 16.39505859 -9.57743877 15.43731123 -11.83813477 12.48583984 C-12.40454102 10.48583984 -12.40454102 10.48583984 -12.40063477 8.48583984 C-12.42254883 7.82583984 -12.44446289 7.16583984 -12.46704102 6.48583984 C-10.64171288 0.68106962 -5.33561985 -0.01264476 0 0 Z " fill="#000000" transform="translate(51.838134765625,311.51416015625)"/>
<path d="M0 0 C0.97988892 -0.0038269 1.95977783 -0.00765381 2.96936035 -0.01159668 C5.03703847 -0.01431352 7.10475109 -0.00696836 9.17236328 0.00976562 C12.33313794 0.03117811 15.4916396 0.0099558 18.65234375 -0.015625 C20.66406751 -0.01298168 22.67578985 -0.00785663 24.6875 0 C25.63032837 -0.00809692 26.57315674 -0.01619385 27.54455566 -0.02453613 C31.78977964 0.03598562 34.21609241 0.15337858 37.91601562 2.38085938 C40.40622741 5.1586944 40.84375 6.81318113 40.84375 10.53125 C38.71331522 15.09646739 38.71331522 15.09646739 35.84375 16.53125 C34.35394518 16.64099359 32.85945599 16.69028539 31.36572266 16.70825195 C29.97385239 16.72750481 29.97385239 16.72750481 28.55386353 16.74714661 C27.04606827 16.75822701 27.04606827 16.75822701 25.5078125 16.76953125 C24.47691498 16.777603 23.44601746 16.78567474 22.38388062 16.79399109 C20.19994797 16.80783645 18.01599364 16.81855657 15.83203125 16.82641602 C12.48916783 16.84364477 9.14728915 16.88752932 5.8046875 16.93164062 C3.68490312 16.94176593 1.56511032 16.95028254 -0.5546875 16.95703125 C-1.55583588 16.97453934 -2.55698425 16.99204742 -3.58847046 17.01008606 C-10.52471687 16.98836473 -10.52471687 16.98836473 -13.78344727 14.62963867 C-15.25277644 12.38370515 -15.72395402 11.19570906 -15.71875 8.53125 C-15.74066406 7.87125 -15.76257812 7.21125 -15.78515625 6.53125 C-13.5224531 -0.66442711 -6.15950458 -0.05289726 0 0 Z " fill="#000000" transform="translate(55.15625,375.46875)"/>
</svg>
