<?xml version="1.0" standalone="no"?>
<!DOCTYPE svg PUBLIC "-//W3C//DTD SVG 20010904//EN"
 "http://www.w3.org/TR/2001/REC-SVG-20010904/DTD/svg10.dtd">
<svg version="1.0" xmlns="http://www.w3.org/2000/svg"
 width="512.000000pt" height="512.000000pt" viewBox="0 0 512.000000 512.000000"
 preserveAspectRatio="xMidYMid meet">

<g transform="translate(0.000000,512.000000) scale(0.100000,-0.100000)"
fill="#000000" stroke="none">
<path d="M1645 5101 c-16 -10 -344 -333 -727 -717 l-696 -699 -7 -55 c-3 -30
-5 -804 -3 -1720 l3 -1665 26 -55 c33 -70 89 -126 159 -159 l55 -26 1543 -3
c1171 -2 1548 1 1565 10 12 6 102 71 199 145 98 73 180 133 183 133 3 0 85
-60 183 -133 97 -74 187 -139 199 -145 30 -16 58 -15 94 4 56 29 59 48 60 436
l0 353 74 58 c149 116 271 308 321 502 36 138 38 328 6 459 -26 106 -94 253
-156 340 -91 127 -281 278 -408 324 -40 14 -48 21 -48 42 0 14 -1 545 -2 1180
l-3 1155 -29 62 c-33 72 -94 134 -164 166 l-47 22 -1175 3 c-1140 2 -1176 2
-1205 -17z m2328 -202 c26 -7 44 -21 57 -42 19 -31 20 -60 20 -1167 l0 -1135
-75 3 c-94 5 -215 -12 -320 -45 -95 -30 -157 -60 -247 -120 l-66 -45 -336 288
-336 288 0 403 0 402 158 3 157 3 0 425 0 425 -427 3 -428 2 0 -430 0 -430
160 0 160 0 0 -435 c0 -289 4 -442 11 -458 6 -13 174 -162 373 -332 l363 -308
-48 -75 c-27 -41 -49 -78 -49 -83 0 -5 -399 -9 -910 -9 l-910 0 0 160 0 160
160 0 160 0 0 425 0 425 -430 0 -430 0 0 -425 0 -425 160 0 160 0 0 -207 c0
-225 6 -267 46 -304 l26 -24 940 -3 c850 -2 939 -4 934 -18 -3 -9 -11 -68 -16
-132 -8 -90 -14 -118 -28 -128 -9 -7 -159 -114 -332 -238 l-314 -226 -366 0
-365 0 -32 69 c-151 320 -607 325 -762 9 -129 -262 38 -571 327 -607 186 -23
365 76 438 243 l28 66 376 0 c206 0 389 4 407 9 17 5 172 109 343 232 171 122
314 218 319 213 4 -5 18 -36 31 -69 56 -141 169 -293 283 -380 l66 -50 0 -298
1 -297 -1461 2 -1461 3 -29 33 -29 32 0 1620 0 1620 453 0 c498 0 524 3 639
61 82 41 186 145 227 227 60 119 61 131 61 639 l0 463 1063 0 c714 0 1074 -4
1100 -11z m-2384 -904 c-20 -108 -80 -184 -184 -232 l-60 -28 -385 -3 -385 -3
510 511 510 510 3 -347 c2 -232 -1 -368 -9 -408z m1181 165 l0 -210 -210 0
-210 0 0 210 0 210 210 0 210 0 0 -210z m-1390 -1385 l0 -215 -210 0 -210 0 0
215 0 215 210 0 210 0 0 -215z m2756 -456 c240 -60 434 -245 520 -494 26 -73
28 -92 28 -225 0 -133 -2 -152 -28 -225 -86 -251 -277 -431 -525 -497 -104
-27 -268 -27 -372 0 -248 66 -445 252 -527 500 -23 68 -26 93 -26 222 0 129 3
154 26 222 128 385 513 597 904 497z m-2844 -1184 c157 -111 94 -367 -96 -383
-66 -5 -117 10 -163 51 -115 101 -88 282 52 349 61 29 152 21 207 -17z m2448
-472 c45 -12 107 -17 205 -17 131 0 173 6 293 40 l22 6 0 -181 c0 -99 -2 -181
-5 -181 -3 0 -59 40 -123 88 -135 102 -151 112 -187 112 -36 0 -52 -10 -187
-112 -64 -48 -120 -88 -123 -88 -3 0 -5 82 -5 181 l0 181 23 -6 c12 -4 51 -14
87 -23z"/>
<path d="M3520 4160 l0 -430 105 0 105 0 0 430 0 430 -105 0 -105 0 0 -430z"/>
<path d="M4068 1763 l-228 -228 -123 123 -122 122 -75 -75 -75 -75 160 -161
c88 -88 173 -167 189 -176 64 -34 78 -24 374 270 149 149 272 276 272 282 0
10 -130 145 -140 145 -3 0 -107 -102 -232 -227z"/>
</g>
</svg>
