<?xml version="1.0" standalone="no"?>
<!DOCTYPE svg PUBLIC "-//W3C//DTD SVG 20010904//EN"
 "http://www.w3.org/TR/2001/REC-SVG-20010904/DTD/svg10.dtd">
<svg version="1.0" xmlns="http://www.w3.org/2000/svg"
 width="360.000000pt" height="360.000000pt" viewBox="0 0 360.000000 360.000000"
 preserveAspectRatio="xMidYMid meet">

<g transform="translate(0.000000,360.000000) scale(0.100000,-0.100000)"
fill="#000000" stroke="none">
<path d="M1021 2934 c-52 -37 -51 -11 -51 -1031 l0 -948 153 -153 152 -152
633 0 c702 0 680 -2 708 65 21 51 21 2119 0 2170 -29 68 7 65 -823 65 -676 0
-751 -2 -772 -16z m1527 -66 c17 -17 17 -2119 0 -2136 -9 -9 -160 -12 -620
-12 l-608 0 0 103 c0 153 -25 177 -185 177 l-95 0 0 928 c0 708 3 931 12 940
17 17 1479 17 1496 0z m-1310 -1950 c7 -7 12 -40 12 -80 l0 -68 -75 73 c-41
40 -75 76 -75 80 0 12 125 8 138 -5z"/>
<path d="M1746 2796 c-53 -20 -104 -72 -117 -121 -18 -66 -7 -204 19 -248 69
-110 235 -111 303 0 25 40 36 148 25 228 -16 104 -133 176 -230 141z m99 -70
c19 -8 41 -28 49 -45 21 -40 22 -171 1 -211 -17 -32 -61 -60 -95 -60 -34 0
-78 28 -95 60 -21 40 -20 171 1 211 14 28 61 58 92 59 7 0 28 -6 47 -14z"/>
<path d="M1525 2381 c-43 -26 -82 -75 -95 -119 -5 -20 -10 -108 -10 -195 0
-209 9 -226 119 -227 l65 0 -34 35 c-20 21 -44 35 -58 35 l-23 0 3 174 c3 199
10 218 86 246 l40 15 -22 28 c-26 32 -32 33 -71 8z"/>
<path d="M2002 2371 l-21 -29 25 -6 c42 -11 76 -38 90 -73 10 -23 14 -80 14
-193 l0 -160 -23 0 c-13 0 -38 -15 -57 -35 l-34 -35 61 0 c116 0 123 12 123
227 0 168 -6 207 -42 259 -21 30 -83 74 -105 74 -5 0 -19 -13 -31 -29z"/>
<path d="M1766 2088 c-8 -13 -20 -35 -27 -50 -10 -23 -20 -29 -61 -34 -45 -6
-78 -24 -78 -43 0 -4 18 -25 40 -46 l40 -39 -6 -63 c-8 -78 5 -86 77 -53 l49
23 49 -23 c72 -33 85 -25 77 53 l-6 63 40 39 c22 21 40 42 40 46 0 19 -33 37
-77 43 -45 6 -50 9 -73 54 -29 55 -60 66 -84 30z m49 -118 c4 -13 19 -23 36
-27 27 -5 28 -7 14 -23 -8 -9 -15 -31 -15 -48 0 -30 -1 -31 -25 -20 -19 8 -31
8 -50 0 -24 -11 -25 -10 -25 20 0 17 -7 39 -15 48 -14 16 -13 18 14 23 17 4
32 14 36 27 3 11 10 20 15 20 5 0 12 -9 15 -20z"/>
<path d="M1246 1634 c-17 -44 -12 -44 554 -44 566 0 571 0 554 44 -6 14 -57
16 -554 16 -497 0 -548 -2 -554 -16z"/>
<path d="M1251 1496 c-9 -11 -10 -20 -1 -35 11 -21 15 -21 550 -21 535 0 539
0 550 21 27 49 29 49 -550 49 -455 0 -539 -2 -549 -14z"/>
<path d="M1251 1312 c-6 -11 -6 -24 0 -35 9 -16 49 -17 549 -17 506 0 540 1
549 18 6 11 6 24 0 35 -9 16 -49 17 -549 17 -506 0 -540 -1 -549 -18z"/>
<path d="M1256 1174 c-19 -19 -20 -26 -4 -42 17 -17 1079 -17 1096 0 16 16 15
23 -4 42 -14 14 -77 16 -544 16 -467 0 -530 -2 -544 -16z"/>
</g>
</svg>
